<?xml version="1.0" encoding="utf-8"?>
<!-- Generator: Adobe Illustrator 23.0.3, SVG Export Plug-In . SVG Version: 6.00 Build 0)  -->
<svg version="1.1" id="图层_1" xmlns="http://www.w3.org/2000/svg" xmlns:xlink="http://www.w3.org/1999/xlink" x="0px" y="0px"
	 viewBox="0 0 490 128" style="enable-background:new 0 0 490 128;" xml:space="preserve">
<style type="text/css">
	.st0{fill:#D80305;}
	.st1{fill:#1D509D;}
	.st2{fill-rule:evenodd;clip-rule:evenodd;fill:#D80305;}
</style>
<title>logo/横/原色</title>
<desc>Created with Sketch.</desc>
<g>
	<path class="st0" d="M234.6,47.7c-0.3-1.1-0.7-2.2-1.2-3.2c-1.5-3.5-3.8-6.6-6.6-9.2c-1.6-1.5-3.3-2.7-5.2-3.8
		c-4.4-2.5-9.7-3.8-15.5-3.8h-20.6l-2.4,12.4h20.6c2.6,0,5,0.4,7.1,1.2c2.2,0.8,4.1,1.9,5.8,3.2c3.2,2.6,5.4,6.3,6.3,10.5
		c0.3,1.4,0.5,2.8,0.4,4.3c0,1.5-0.1,3.1-0.5,4.7c-0.3,1.7-0.8,3.4-1.5,5c0,0.8,0.1,1.6,0.3,2.4c0.7,3.3,2.4,6.2,4.9,8.2
		c0.4,0.4,0.9,0.7,1.4,1c3.6-5,6.1-10.6,7.3-16.6C236.5,58.2,236.2,52.6,234.6,47.7z M202.2,86.8c-2.6,0.8-5.3,1.3-8,1.3h-20.6
		l-2.4,12.4h20.6c6,0,12-1.5,17.5-4.1C206.3,93.7,203.9,90.5,202.2,86.8z"/>
	<path class="st1" d="M236.2,88c-2.6,0-5-0.4-7.1-1.2c-2.2-0.7-4.1-1.8-5.8-3.2c-3.2-2.6-5.4-6.3-6.3-10.5c-0.3-1.4-0.5-2.8-0.4-4.3
		c0-1.5,0.1-3.1,0.5-4.7c0.3-1.7,0.8-3.4,1.5-5c0-0.8-0.1-1.6-0.3-2.4c-0.7-3.3-2.4-6.2-4.9-8.2c-0.4-0.4-0.9-0.7-1.4-1
		c-3.6,5-6.1,10.6-7.3,16.6c-1.2,5.9-0.9,11.5,0.7,16.4c0.3,1.1,0.7,2.2,1.2,3.2c1.5,3.5,3.8,6.6,6.6,9.2c1.6,1.4,3.3,2.7,5.2,3.7
		c4.4,2.5,9.7,3.8,15.5,3.8h26.8L263,88H236.2z M248.1,27.7c-6,0-12,1.4-17.5,4.1c2.9,2.7,5.3,5.9,7,9.6c2.6-0.8,5.3-1.3,8-1.3h26.8
		l2.5-12.4H248.1z"/>
	<path class="st1" d="M353.5,74.6c-1.2,6.7-3,14.8-13,14.8c-9.6,0-9-8.1-7.8-14.8c1.1-6.3,3.4-14.7,13.1-14.7
		C355.8,59.9,354.6,68.3,353.5,74.6 M365.1,55.6c-3.3-4.6-8.9-7-17-7c-7.8,0-15.3,2.1-20.4,6.7c-5.1,4.7-7.4,11.4-9.1,19.7
		c-1.6,7.9-0.7,14.2,2.8,18.7c3.4,4.5,8.9,6.8,16.3,6.8c7.7,0,15-1.8,20.3-6.2c5.3-4.4,7.9-11.2,9.5-19.3
		C369.2,66.7,368.4,60.2,365.1,55.6"/>
	<path class="st1" d="M321.1,49c-15.4-1.6-25.6,2.9-29.1,4.9c0.4-2.5,0.4-2.6,0.8-5.3H278l-9.1,51.9h14.8c0.6-3.6,1.3-7.6,2.1-11.8
		c0-0.1,1.5-7.8,2.1-9.3c2.1-5.3,9.7-18.6,30.8-16.5L321.1,49z"/>
	<path class="st1" d="M412,61.3l1.9-10.7c-1.6-0.5-15.1-4.4-28.4,0.2c0,0-11.5,3.3-11.5,13.8c0,0-0.1,1.6,0.4,3.7
		c0.4,1.4,1.5,4.2,4.9,6.6c0,0,0.5,0.4,1.8,1.1c0.9,0.5,1.9,0.9,3.1,1.3c1.8,0.7,3.5,1.1,6.6,1.8c0.4,0.1,2.7,0.4,4.4,2.2
		c0.4,0.4,1.4,1.9,0.3,4.1c-0.3,0.6-0.9,1.2-2,1.7c-2.9,1.3-8.6,3.4-22.8,0l-2,11.3c0.9,0.3,6.8,1.9,15,2.1l0,0c0,0,8.2,0.5,15.3-2
		c1.8-0.7,5.1-2.3,7.8-5.5c1.6-2,2.9-4.6,3-7.7c0,0,0-0.2,0-0.6c0-0.1,0-0.2,0-0.3c0.1-2.7-0.6-5-1.7-6.7c-0.7-1.1-1.6-2.1-2.4-2.8
		c-2.3-1.9-6.4-3.3-7.8-3.7c-0.2-0.1-0.3-0.1-0.5-0.1c0,0,0,0,0,0h0c-6.9-2-8.3-3-8.3-3h0c-1.8-1.1-1.9-2.8-1.8-3.8
		c0.1-0.6,0.6-2,2.3-2.9c0.9-0.5,2.1-0.9,3.7-1.2c2.2-0.4,5.2-0.5,9.5-0.2c0.3,0,0.5,0,0.8,0.1c0.1,0,0.2,0,0.3,0l0,0
		C406.1,60,409.6,60.5,412,61.3"/>
	<path class="st1" d="M457.3,61.3l1.9-10.7c-1.6-0.5-15.1-4.4-28.4,0.2c0,0-11.5,3.3-11.5,13.8c0,0-0.1,1.6,0.4,3.7
		c0.4,1.4,1.5,4.2,4.9,6.6c0,0,0.5,0.4,1.8,1.1c0.9,0.5,1.9,0.9,3.1,1.3c1.8,0.7,3.5,1.1,6.6,1.8c0.4,0.1,2.7,0.4,4.4,2.2
		c0.4,0.4,1.4,1.9,0.3,4.1c-0.3,0.6-0.9,1.2-2,1.7c-2.9,1.3-8.6,3.4-22.8,0l-2,11.3c0.9,0.3,6.8,1.9,15,2.1l0,0c0,0,8.2,0.5,15.3-2
		c1.8-0.7,5.1-2.3,7.8-5.5c1.6-2,2.9-4.6,3-7.7c0,0,0-0.2,0-0.6c0-0.1,0-0.2,0-0.3c0.1-2.7-0.6-5-1.7-6.7c-0.7-1.1-1.6-2.1-2.4-2.8
		c-2.3-1.9-6.4-3.3-7.8-3.7c-0.2-0.1-0.3-0.1-0.5-0.1c0,0,0,0,0,0h0c-6.9-2-8.3-3-8.3-3h0c-1.8-1.1-1.9-2.8-1.8-3.8
		c0.1-0.6,0.6-2,2.3-2.9c0.9-0.5,2.1-0.9,3.7-1.2c2.2-0.4,5.2-0.5,9.5-0.2c0.3,0,0.5,0,0.8,0.1c0.1,0,0.2,0,0.3,0l0,0
		C451.4,60,454.8,60.5,457.3,61.3"/>
	<g>
		<path class="st2" d="M168.5,69.5c0-10.7-5.9-22.1-22.2-22.2c-16,0.1-26.9,9.4-28.8,26.4c-1.1,16.4,10.2,25.9,23.2,26.3l0,0h22.6
			l2.4-12.1h-25.2c-5.9-1.8-9.1-5.8-9.4-10.1h36.7C167.7,77.9,168.5,72.6,168.5,69.5z M133.2,67.2c1.5-4.9,6.8-8.3,11.8-8.4
			c4.2-0.1,6,0.8,7.8,2.5c2.8,2.5,3.4,6,3.4,6H133.2z"/>
		<polygon class="st2" points="121.9,27.4 105.5,27.4 97.8,71.8 87.7,47.2 71.4,47.2 71.4,47.2 54.3,70.6 61.9,27.4 45.5,27.4 
			32.8,100 32.9,100 49.2,100 49.2,100 49.2,100 77.4,61.9 92.9,100 92.9,100 92.9,100 109.3,100 109.3,100 109.3,100 		"/>
	</g>
</g>
</svg>
